<svg xmlns="http://www.w3.org/2000/svg" xmlns:xlink="http://www.w3.org/1999/xlink" version="1.1" x="0px" y="0px" viewBox="0 0 100 125" style="enable-background:new 0 0 100 100;" xml:space="preserve"><g><path d="M60.001,59.998h-5v-4.999h5V59.998z M70,70H30.002V30.002H70V70z M65,35.002H35.002v29.999H65V35.002z M50.001,54.999h-10   v4.999h10V54.999z M85,35.002v9.999h14.998v10H85v10h14.998V75H85v10H75v15H65V85h-9.999v15h-10V85h-10v15h-10V85h-10V75H0.001   v-9.999h15.001v-10H0.001v-10h15.001v-9.999H0.001v-10h15.001v-10h10V0h10v15.002h10V0h10v15.002H65V0h10v15.002h10v10h14.998v10   H85z M67.921,80c-0.023-0.091-0.04-0.185-0.04-0.283c0-0.635,0.516-1.15,1.151-1.15s1.149,0.516,1.149,1.15   c0,0.099-0.016,0.192-0.039,0.283h3.197c-0.023-0.091-0.039-0.185-0.039-0.283c0-0.635,0.514-1.15,1.149-1.15s1.15,0.516,1.15,1.15   c0,0.099-0.017,0.192-0.039,0.283h3.192c-0.022-0.091-0.039-0.185-0.039-0.283c0-0.635,0.516-1.15,1.15-1.15   c0.046,0,0.09,0.008,0.135,0.014v-3.139c-0.045,0.005-0.089,0.014-0.135,0.014c-0.635,0-1.15-0.516-1.15-1.15s0.516-1.15,1.15-1.15   c0.046,0,0.09,0.008,0.135,0.014v-3.145c-0.045,0.004-0.089,0.014-0.135,0.014c-0.635,0-1.15-0.516-1.15-1.15   c0-0.637,0.516-1.15,1.15-1.15c0.046,0,0.09,0.008,0.135,0.014v-3.146c-0.045,0.006-0.089,0.014-0.135,0.014   c-0.635,0-1.15-0.516-1.15-1.15c0-0.636,0.516-1.15,1.15-1.15c0.046,0,0.09,0.009,0.135,0.014v-3.139   c-0.045,0.006-0.089,0.014-0.135,0.014c-0.635,0-1.15-0.515-1.15-1.15c0-0.635,0.516-1.149,1.15-1.149   c0.046,0,0.09,0.008,0.135,0.013v-3.145c-0.045,0.005-0.089,0.014-0.135,0.014c-0.635,0-1.15-0.516-1.15-1.15   c0-0.636,0.516-1.15,1.15-1.15c0.046,0,0.09,0.008,0.135,0.014v-3.152c-0.045,0.005-0.089,0.013-0.135,0.013   c-0.635,0-1.15-0.514-1.15-1.15c0-0.635,0.516-1.15,1.15-1.15c0.046,0,0.09,0.008,0.135,0.014v-3.139   c-0.045,0.006-0.089,0.014-0.135,0.014c-0.635,0-1.15-0.516-1.15-1.15c0-0.636,0.516-1.15,1.15-1.15   c0.046,0,0.09,0.009,0.135,0.014v-3.146c-0.045,0.006-0.089,0.014-0.135,0.014c-0.635,0-1.15-0.515-1.15-1.15   c0-0.635,0.516-1.15,1.15-1.15c0.046,0,0.09,0.009,0.135,0.014v-3.153c-0.045,0.005-0.089,0.014-0.135,0.014   c-0.635,0-1.15-0.515-1.15-1.15c0-0.635,0.516-1.15,1.15-1.15c0.046,0,0.09,0.008,0.135,0.014v-3.139   c-0.045,0.006-0.089,0.014-0.135,0.014c-0.635,0-1.15-0.516-1.15-1.15c0-0.635,0.516-1.15,1.15-1.15   c0.046,0,0.09,0.008,0.135,0.013V21.26c-0.045,0.005-0.089,0.014-0.135,0.014c-0.635,0-1.15-0.515-1.15-1.15   c0-0.042,0.008-0.081,0.012-0.122h-3.139c0.005,0.041,0.013,0.08,0.013,0.122c0,0.635-0.515,1.15-1.15,1.15   s-1.149-0.515-1.149-1.15c0-0.042,0.008-0.081,0.012-0.122H70.17c0.004,0.041,0.012,0.08,0.012,0.122   c0,0.635-0.514,1.15-1.149,1.15s-1.151-0.515-1.151-1.15c0-0.042,0.009-0.081,0.013-0.122h-3.139   c0.005,0.041,0.013,0.08,0.013,0.122c0,0.635-0.516,1.15-1.15,1.15c-0.636,0-1.15-0.515-1.15-1.15c0-0.042,0.008-0.081,0.012-0.122   H59.34c0.005,0.041,0.013,0.08,0.013,0.122c0,0.635-0.516,1.15-1.15,1.15c-0.636,0-1.149-0.515-1.149-1.15   c0-0.042,0.008-0.081,0.012-0.122h-3.143c0.004,0.041,0.012,0.08,0.012,0.122c0,0.635-0.516,1.15-1.15,1.15s-1.15-0.515-1.15-1.15   c0-0.042,0.008-0.081,0.013-0.122H48.5c0.004,0.041,0.012,0.08,0.012,0.122c0,0.635-0.515,1.15-1.15,1.15s-1.15-0.515-1.15-1.15   c0-0.042,0.008-0.081,0.012-0.122h-3.14c0.004,0.041,0.012,0.08,0.012,0.122c0,0.635-0.515,1.15-1.15,1.15s-1.15-0.515-1.15-1.15   c0-0.042,0.008-0.081,0.012-0.122h-3.143c0.004,0.041,0.012,0.08,0.012,0.122c0,0.635-0.515,1.15-1.15,1.15   c-0.635,0-1.15-0.515-1.15-1.15c0-0.042,0.008-0.081,0.012-0.122h-3.139c0.004,0.041,0.012,0.08,0.012,0.122   c0,0.635-0.514,1.15-1.15,1.15c-0.635,0-1.15-0.515-1.15-1.15c0-0.042,0.008-0.081,0.012-0.122h-3.138   c0.004,0.041,0.012,0.08,0.012,0.122c0,0.635-0.515,1.15-1.15,1.15c-0.636,0-1.151-0.515-1.151-1.15   c0-0.042,0.008-0.081,0.012-0.122h-3.142c0.004,0.041,0.012,0.08,0.012,0.122c0,0.635-0.515,1.15-1.15,1.15   c-0.097,0-0.189-0.015-0.279-0.038v3.193c0.09-0.022,0.182-0.038,0.279-0.038c0.635,0,1.15,0.515,1.15,1.15   c0,0.635-0.515,1.15-1.15,1.15c-0.097,0-0.189-0.015-0.279-0.037v3.187c0.09-0.022,0.182-0.038,0.279-0.038   c0.635,0,1.15,0.516,1.15,1.15c0,0.636-0.515,1.15-1.15,1.15c-0.097,0-0.189-0.016-0.279-0.038v3.202   c0.09-0.022,0.182-0.038,0.279-0.038c0.635,0,1.15,0.516,1.15,1.15c0,0.636-0.515,1.15-1.15,1.15c-0.097,0-0.189-0.016-0.279-0.037   v3.193c0.09-0.022,0.182-0.038,0.279-0.038c0.635,0,1.15,0.515,1.15,1.15c0,0.635-0.515,1.15-1.15,1.15   c-0.097,0-0.189-0.015-0.279-0.038v3.187c0.09-0.022,0.182-0.038,0.279-0.038c0.635,0,1.15,0.515,1.15,1.15   c0,0.636-0.515,1.15-1.15,1.15c-0.097,0-0.189-0.015-0.279-0.038v3.201c0.09-0.022,0.182-0.038,0.279-0.038   c0.635,0,1.15,0.515,1.15,1.15c0,0.635-0.515,1.15-1.15,1.15c-0.097,0-0.189-0.016-0.279-0.038v3.193   c0.09-0.022,0.182-0.037,0.279-0.037c0.635,0,1.15,0.515,1.15,1.149c0,0.636-0.515,1.15-1.15,1.15   c-0.097,0-0.189-0.016-0.279-0.037v3.187c0.09-0.022,0.182-0.038,0.279-0.038c0.635,0,1.15,0.515,1.15,1.15   c0,0.635-0.515,1.15-1.15,1.15c-0.097,0-0.189-0.016-0.279-0.037v3.193c0.09-0.021,0.182-0.037,0.279-0.037   c0.635,0,1.15,0.514,1.15,1.15c0,0.635-0.515,1.15-1.15,1.15c-0.097,0-0.189-0.016-0.279-0.039v3.193   c0.09-0.021,0.182-0.037,0.279-0.037c0.635,0,1.15,0.516,1.15,1.15s-0.515,1.15-1.15,1.15c-0.097,0-0.189-0.016-0.279-0.038v3.188   c0.09-0.022,0.182-0.038,0.279-0.038c0.635,0,1.15,0.516,1.15,1.15c0,0.099-0.016,0.192-0.04,0.283h3.197   c-0.023-0.091-0.04-0.185-0.04-0.283c0-0.635,0.515-1.15,1.151-1.15c0.635,0,1.15,0.516,1.15,1.15c0,0.099-0.016,0.192-0.04,0.283   h3.193c-0.023-0.091-0.04-0.185-0.04-0.283c0-0.635,0.515-1.15,1.15-1.15c0.636,0,1.15,0.516,1.15,1.15   c0,0.099-0.016,0.192-0.04,0.283h3.194c-0.023-0.091-0.04-0.185-0.04-0.283c0-0.635,0.515-1.15,1.15-1.15   c0.635,0,1.15,0.516,1.15,1.15c0,0.099-0.016,0.192-0.04,0.283h3.197c-0.023-0.091-0.04-0.185-0.04-0.283   c0-0.635,0.515-1.15,1.15-1.15s1.15,0.516,1.15,1.15c0,0.099-0.016,0.192-0.04,0.283h3.194c-0.023-0.091-0.039-0.185-0.039-0.283   c0-0.635,0.515-1.15,1.15-1.15s1.15,0.516,1.15,1.15c0,0.099-0.016,0.192-0.04,0.283h3.2c-0.023-0.091-0.04-0.185-0.04-0.283   c0-0.635,0.516-1.15,1.15-1.15s1.15,0.516,1.15,1.15c0,0.099-0.016,0.192-0.039,0.283h3.197c-0.023-0.091-0.039-0.185-0.039-0.283   c0-0.635,0.514-1.15,1.149-1.15s1.15,0.516,1.15,1.15c0,0.099-0.017,0.192-0.04,0.283h3.193c-0.023-0.091-0.039-0.185-0.039-0.283   c0-0.635,0.515-1.15,1.15-1.15c0.635,0,1.15,0.516,1.15,1.15c0,0.099-0.017,0.192-0.04,0.283H67.921z M28.399,21.682   c-0.636,0-1.151,0.516-1.151,1.15c0,0.636,0.515,1.15,1.151,1.15c0.635,0,1.149-0.515,1.149-1.15   C29.549,22.198,29.035,21.682,28.399,21.682z M33.817,23.983c0.635,0,1.15-0.515,1.15-1.15c0-0.635-0.515-1.15-1.15-1.15   c-0.635,0-1.15,0.516-1.15,1.15C32.667,23.468,33.182,23.983,33.817,23.983z M22.99,21.682c-0.636,0-1.15,0.516-1.15,1.15   c0,0.636,0.514,1.15,1.15,1.15c0.635,0,1.15-0.515,1.15-1.15C24.141,22.198,23.625,21.682,22.99,21.682z M25.7,24.392   c-0.636,0-1.151,0.515-1.151,1.15c0,0.635,0.515,1.15,1.151,1.15c0.635,0,1.15-0.516,1.15-1.15   C26.85,24.907,26.335,24.392,25.7,24.392z M31.114,26.692c0.636,0,1.15-0.516,1.15-1.15c0-0.635-0.514-1.15-1.15-1.15   c-0.635,0-1.15,0.515-1.15,1.15C29.964,26.177,30.479,26.692,31.114,26.692z M44.647,23.983c0.635,0,1.15-0.515,1.15-1.15   c0-0.635-0.515-1.15-1.15-1.15c-0.635,0-1.15,0.516-1.15,1.15C43.497,23.468,44.012,23.983,44.647,23.983z M39.238,23.983   c0.635,0,1.15-0.515,1.15-1.15c0-0.635-0.515-1.15-1.15-1.15s-1.15,0.516-1.15,1.15C38.088,23.468,38.604,23.983,39.238,23.983z    M36.529,26.692c0.635,0,1.15-0.516,1.15-1.15c0-0.635-0.515-1.15-1.15-1.15c-0.635,0-1.15,0.515-1.15,1.15   C35.379,26.177,35.894,26.692,36.529,26.692z M41.948,26.692c0.635,0,1.15-0.516,1.15-1.15c0-0.635-0.515-1.15-1.15-1.15   s-1.15,0.515-1.15,1.15C40.797,26.177,41.313,26.692,41.948,26.692z M47.363,26.692c0.635,0,1.15-0.516,1.15-1.15   c0-0.635-0.515-1.15-1.15-1.15s-1.15,0.515-1.15,1.15C46.213,26.177,46.728,26.692,47.363,26.692z M28.399,27.095   c-0.636,0-1.151,0.515-1.151,1.15c0,0.635,0.515,1.15,1.151,1.15c0.635,0,1.149-0.516,1.149-1.15   C29.549,27.609,29.035,27.095,28.399,27.095z M33.817,29.396c0.635,0,1.15-0.516,1.15-1.15c0-0.636-0.515-1.15-1.15-1.15   c-0.635,0-1.15,0.515-1.15,1.15C32.667,28.88,33.182,29.396,33.817,29.396z M22.99,27.095c-0.636,0-1.15,0.515-1.15,1.15   c0,0.635,0.514,1.15,1.15,1.15c0.635,0,1.15-0.516,1.15-1.15C24.141,27.609,23.625,27.095,22.99,27.095z M25.7,29.804   c-0.636,0-1.151,0.516-1.151,1.15c0,0.636,0.515,1.15,1.151,1.15c0.635,0,1.15-0.515,1.15-1.15   C26.85,30.319,26.335,29.804,25.7,29.804z M44.647,29.396c0.635,0,1.15-0.516,1.15-1.15c0-0.636-0.515-1.15-1.15-1.15   c-0.635,0-1.15,0.515-1.15,1.15C43.497,28.88,44.012,29.396,44.647,29.396z M39.238,29.396c0.635,0,1.15-0.516,1.15-1.15   c0-0.636-0.515-1.15-1.15-1.15s-1.15,0.515-1.15,1.15C38.088,28.88,38.604,29.396,39.238,29.396z M22.99,32.514   c-0.636,0-1.15,0.515-1.15,1.149c0,0.636,0.514,1.151,1.15,1.151c0.635,0,1.15-0.516,1.15-1.151   C24.141,33.028,23.625,32.514,22.99,32.514z M28.399,32.514c-0.636,0-1.151,0.515-1.151,1.149c0,0.636,0.515,1.151,1.151,1.151   c0.635,0,1.149-0.516,1.149-1.151C29.549,33.028,29.035,32.514,28.399,32.514z M28.399,37.94c-0.636,0-1.151,0.515-1.151,1.15   c0,0.636,0.515,1.151,1.151,1.151c0.635,0,1.149-0.515,1.149-1.151C29.549,38.455,29.035,37.94,28.399,37.94z M22.99,37.94   c-0.636,0-1.15,0.515-1.15,1.15c0,0.636,0.514,1.151,1.15,1.151c0.635,0,1.15-0.515,1.15-1.151   C24.141,38.455,23.625,37.94,22.99,37.94z M25.7,35.23c-0.636,0-1.151,0.516-1.151,1.15c0,0.636,0.515,1.15,1.151,1.15   c0.635,0,1.15-0.515,1.15-1.15C26.85,35.746,26.335,35.23,25.7,35.23z M25.7,40.649c-0.636,0-1.151,0.515-1.151,1.15   c0,0.635,0.515,1.15,1.151,1.15c0.635,0,1.15-0.516,1.15-1.15C26.85,41.164,26.335,40.649,25.7,40.649z M28.399,43.353   c-0.636,0-1.151,0.515-1.151,1.15c0,0.635,0.515,1.15,1.151,1.15c0.635,0,1.149-0.516,1.149-1.15   C29.549,43.867,29.035,43.353,28.399,43.353z M22.99,43.352c-0.636,0-1.15,0.516-1.15,1.15c0,0,0,0,0,0   c0,0.635,0.514,1.15,1.15,1.15c0.635,0,1.15-0.515,1.15-1.15c0,0,0,0,0,0C24.141,43.867,23.625,43.352,22.99,43.352z M25.7,46.062   c-0.636,0-1.151,0.515-1.151,1.15c0,0.636,0.515,1.15,1.151,1.15c0.635,0,1.15-0.514,1.15-1.15   C26.85,46.576,26.335,46.062,25.7,46.062z M22.99,48.771c-0.636,0-1.15,0.514-1.15,1.15c0,0.001,0,0.002,0,0.003   c0,0,0,0.001,0,0.002c0,0.636,0.514,1.15,1.15,1.15c0.635,0,1.15-0.515,1.15-1.15c0-0.001,0-0.002,0-0.002c0-0.001,0-0.002,0-0.003   C24.141,49.285,23.625,48.771,22.99,48.771z M28.399,48.771c-0.636,0-1.151,0.514-1.151,1.15c0,0.001,0,0.002,0,0.003   c0,0,0,0.001,0,0.002c0,0.636,0.515,1.15,1.151,1.15c0.635,0,1.149-0.515,1.149-1.15c0-0.001,0-0.002,0-0.002   c0-0.001,0-0.002,0-0.003C29.549,49.285,29.035,48.771,28.399,48.771z M50.074,23.983c0.635,0,1.15-0.515,1.15-1.15   c0-0.635-0.515-1.15-1.15-1.15s-1.15,0.516-1.15,1.15C48.924,23.468,49.439,23.983,50.074,23.983z M60.901,23.983   c0.636,0,1.151-0.515,1.151-1.15c0-0.635-0.516-1.15-1.151-1.15s-1.149,0.516-1.149,1.15   C59.752,23.468,60.266,23.983,60.901,23.983z M66.32,23.983c0.635,0,1.15-0.515,1.15-1.15c0-0.635-0.516-1.15-1.15-1.15   s-1.15,0.516-1.15,1.15C65.17,23.468,65.686,23.983,66.32,23.983z M52.783,26.692c0.635,0,1.15-0.516,1.15-1.15   c0-0.635-0.516-1.15-1.15-1.15s-1.15,0.515-1.15,1.15C51.633,26.177,52.148,26.692,52.783,26.692z M58.202,26.692   c0.636,0,1.15-0.516,1.15-1.15c0-0.635-0.515-1.15-1.15-1.15s-1.149,0.515-1.149,1.15C57.053,26.177,57.566,26.692,58.202,26.692z    M63.617,26.692c0.635,0,1.15-0.516,1.15-1.15c0-0.635-0.516-1.15-1.15-1.15c-0.636,0-1.15,0.515-1.15,1.15   C62.467,26.177,62.981,26.692,63.617,26.692z M77.15,23.983c0.635,0,1.15-0.515,1.15-1.15c0-0.635-0.516-1.15-1.15-1.15   c-0.636,0-1.15,0.516-1.15,1.15C76,23.468,76.515,23.983,77.15,23.983z M69.032,26.692c0.636,0,1.149-0.516,1.149-1.15   c0-0.635-0.514-1.15-1.149-1.15s-1.151,0.515-1.151,1.15C67.881,26.177,68.396,26.692,69.032,26.692z M74.45,26.692   c0.636,0,1.15-0.516,1.15-1.15c0-0.635-0.515-1.15-1.15-1.15s-1.149,0.515-1.149,1.15C73.301,26.177,73.814,26.692,74.45,26.692z    M50.074,29.396c0.635,0,1.15-0.516,1.15-1.15c0-0.636-0.515-1.15-1.15-1.15s-1.15,0.515-1.15,1.15   C48.924,28.88,49.439,29.396,50.074,29.396z M60.901,29.396c0.636,0,1.151-0.516,1.151-1.15c0-0.636-0.516-1.15-1.151-1.15   s-1.149,0.515-1.149,1.15C59.752,28.88,60.266,29.396,60.901,29.396z M66.32,29.396c0.635,0,1.15-0.516,1.15-1.15   c0-0.636-0.516-1.15-1.15-1.15s-1.15,0.515-1.15,1.15C65.17,28.88,65.686,29.396,66.32,29.396z M77.15,29.396   c0.635,0,1.15-0.516,1.15-1.15c0-0.636-0.516-1.15-1.15-1.15c-0.636,0-1.15,0.515-1.15,1.15C76,28.88,76.515,29.396,77.15,29.396z    M74.45,32.104c0.636,0,1.15-0.515,1.15-1.15c0-0.635-0.515-1.15-1.15-1.15s-1.149,0.516-1.149,1.15   C73.301,31.59,73.814,32.104,74.45,32.104z M77.15,34.814c0.635,0,1.15-0.516,1.15-1.151c0-0.635-0.516-1.149-1.15-1.149   c-0.636,0-1.15,0.515-1.15,1.149C76,34.299,76.515,34.814,77.15,34.814z M77.15,40.241c0.635,0,1.15-0.515,1.15-1.151   c0-0.635-0.516-1.15-1.15-1.15c-0.636,0-1.15,0.515-1.15,1.15C76,39.726,76.515,40.241,77.15,40.241z M74.45,37.531   c0.636,0,1.15-0.515,1.15-1.15c0-0.635-0.515-1.15-1.15-1.15s-1.149,0.516-1.149,1.15C73.301,37.017,73.814,37.531,74.45,37.531z    M74.45,42.95c0.636,0,1.15-0.516,1.15-1.15c0-0.636-0.515-1.15-1.15-1.15s-1.149,0.515-1.149,1.15   C73.301,42.435,73.814,42.95,74.45,42.95z M77.15,45.653c0.635,0,1.15-0.516,1.15-1.15c0-0.635-0.516-1.15-1.15-1.15   c-0.636,0-1.15,0.515-1.15,1.15C76,45.137,76.515,45.653,77.15,45.653z M74.45,48.361c0.636,0,1.15-0.514,1.15-1.15   c0-0.635-0.515-1.15-1.15-1.15s-1.149,0.515-1.149,1.15C73.301,47.848,73.814,48.361,74.45,48.361z M55.49,23.983   c0.636,0,1.15-0.515,1.15-1.15c0-0.635-0.515-1.15-1.15-1.15c-0.635,0-1.149,0.516-1.149,1.15   C54.341,23.468,54.855,23.983,55.49,23.983z M55.49,29.396c0.636,0,1.15-0.516,1.15-1.15c0-0.636-0.515-1.15-1.15-1.15   c-0.635,0-1.149,0.515-1.149,1.15C54.341,28.88,54.855,29.396,55.49,29.396z M71.74,23.983c0.635,0,1.15-0.515,1.15-1.15   c0-0.635-0.516-1.15-1.15-1.15c-0.636,0-1.15,0.516-1.15,1.15C70.59,23.468,71.104,23.983,71.74,23.983z M71.74,29.396   c0.635,0,1.15-0.516,1.15-1.15c0-0.636-0.516-1.15-1.15-1.15c-0.636,0-1.15,0.515-1.15,1.15   C70.59,28.88,71.104,29.396,71.74,29.396z M71.74,34.814c0.635,0,1.15-0.516,1.15-1.151c0-0.635-0.516-1.149-1.15-1.149   c-0.636,0-1.15,0.515-1.15,1.149C70.59,34.299,71.104,34.814,71.74,34.814z M71.74,40.241c0.635,0,1.15-0.515,1.15-1.151   c0-0.635-0.516-1.15-1.15-1.15c-0.636,0-1.15,0.515-1.15,1.15C70.59,39.726,71.104,40.241,71.74,40.241z M71.74,45.653   c0.635,0,1.15-0.516,1.15-1.15c0-0.635-0.516-1.15-1.15-1.15c-0.636,0-1.15,0.515-1.15,1.15   C70.59,45.137,71.104,45.653,71.74,45.653z M28.399,54.195c-0.636,0-1.151,0.515-1.151,1.15c0,0.635,0.515,1.15,1.151,1.15   c0.635,0,1.149-0.516,1.149-1.15C29.549,54.71,29.035,54.195,28.399,54.195z M22.99,54.195c-0.636,0-1.15,0.515-1.15,1.15   s0.514,1.15,1.15,1.15c0.635,0,1.15-0.515,1.15-1.15S23.625,54.195,22.99,54.195z M25.7,51.486c-0.636,0-1.151,0.515-1.151,1.15   c0,0.635,0.515,1.15,1.151,1.15c0.635,0,1.15-0.516,1.15-1.15C26.85,52.001,26.335,51.486,25.7,51.486z M25.7,56.905   c-0.636,0-1.151,0.515-1.151,1.149c0,0.636,0.515,1.15,1.151,1.15c0.635,0,1.15-0.515,1.15-1.15   C26.85,57.42,26.335,56.905,25.7,56.905z M28.399,59.607c-0.636,0-1.151,0.515-1.151,1.15c0,0.635,0.515,1.15,1.151,1.15   c0.635,0,1.149-0.516,1.149-1.15C29.549,60.122,29.035,59.607,28.399,59.607z M22.99,59.607c-0.636,0-1.15,0.515-1.15,1.15   c0,0.635,0.514,1.15,1.15,1.15c0.635,0,1.15-0.516,1.15-1.15C24.141,60.122,23.625,59.607,22.99,59.607z M25.7,62.316   c-0.636,0-1.151,0.515-1.151,1.15c0,0.635,0.515,1.15,1.151,1.15c0.635,0,1.15-0.516,1.15-1.15   C26.85,62.831,26.335,62.316,25.7,62.316z M22.99,65.026c-0.636,0-1.15,0.515-1.15,1.15s0.514,1.149,1.15,1.149   c0.635,0,1.15-0.514,1.15-1.149S23.625,65.026,22.99,65.026z M28.399,65.026c-0.636,0-1.151,0.515-1.151,1.15   s0.515,1.149,1.151,1.149c0.635,0,1.149-0.514,1.149-1.149S29.035,65.026,28.399,65.026z M28.399,70.445   c-0.636,0-1.151,0.516-1.151,1.15s0.515,1.15,1.151,1.15c0.635,0,1.149-0.516,1.149-1.15S29.035,70.445,28.399,70.445z    M33.817,70.445c-0.635,0-1.15,0.516-1.15,1.15s0.515,1.15,1.15,1.15c0.635,0,1.15-0.516,1.15-1.15S34.452,70.445,33.817,70.445z    M22.99,70.445c-0.636,0-1.15,0.515-1.15,1.15c0,0.635,0.514,1.15,1.15,1.15c0.635,0,1.15-0.516,1.15-1.15   C24.141,70.96,23.625,70.445,22.99,70.445z M25.7,67.736c-0.636,0-1.151,0.514-1.151,1.15c0,0.635,0.515,1.15,1.151,1.15   c0.635,0,1.15-0.516,1.15-1.15C26.85,68.25,26.335,67.736,25.7,67.736z M25.7,73.154c-0.636,0-1.151,0.516-1.151,1.15   s0.515,1.15,1.151,1.15c0.635,0,1.15-0.516,1.15-1.15S26.335,73.154,25.7,73.154z M31.114,73.154c-0.635,0-1.15,0.516-1.15,1.15   s0.515,1.15,1.15,1.15c0.636,0,1.15-0.516,1.15-1.15S31.75,73.154,31.114,73.154z M44.647,70.445c-0.635,0-1.15,0.516-1.15,1.15   s0.515,1.15,1.15,1.15c0.635,0,1.15-0.516,1.15-1.15S45.282,70.445,44.647,70.445z M39.238,70.445c-0.635,0-1.15,0.515-1.15,1.15   c0,0.635,0.515,1.15,1.15,1.15s1.15-0.516,1.15-1.15C40.388,70.96,39.873,70.445,39.238,70.445z M36.529,73.154   c-0.635,0-1.15,0.516-1.15,1.15s0.515,1.15,1.15,1.15c0.635,0,1.15-0.516,1.15-1.15S37.164,73.154,36.529,73.154z M41.948,73.154   c-0.635,0-1.15,0.516-1.15,1.15s0.515,1.15,1.15,1.15s1.15-0.516,1.15-1.15S42.583,73.154,41.948,73.154z M47.363,73.154   c-0.635,0-1.15,0.516-1.15,1.15s0.515,1.15,1.15,1.15s1.15-0.516,1.15-1.15S47.998,73.154,47.363,73.154z M28.399,75.857   c-0.636,0-1.151,0.515-1.151,1.149c0,0.636,0.515,1.15,1.151,1.15c0.635,0,1.149-0.515,1.149-1.15   C29.549,76.372,29.035,75.857,28.399,75.857z M33.817,75.857c-0.635,0-1.15,0.515-1.15,1.149c0,0.636,0.515,1.15,1.15,1.15   c0.635,0,1.15-0.515,1.15-1.15C34.967,76.372,34.452,75.857,33.817,75.857z M22.99,75.857c-0.636,0-1.15,0.515-1.15,1.149   c0,0.636,0.514,1.15,1.15,1.15c0.635,0,1.15-0.515,1.15-1.15C24.141,76.372,23.625,75.857,22.99,75.857z M44.647,75.857   c-0.635,0-1.15,0.515-1.15,1.149c0,0.636,0.515,1.15,1.15,1.15c0.635,0,1.15-0.515,1.15-1.15   C45.797,76.372,45.282,75.857,44.647,75.857z M39.238,75.857c-0.635,0-1.15,0.515-1.15,1.149c0,0.636,0.515,1.15,1.15,1.15   s1.15-0.515,1.15-1.15C40.388,76.372,39.873,75.857,39.238,75.857z M77.15,51.077c0.635,0,1.15-0.515,1.15-1.15   c0-0.001,0-0.002,0-0.002c0-0.001,0-0.002,0-0.003c0-0.636-0.516-1.15-1.15-1.15c-0.636,0-1.15,0.514-1.15,1.15   c0,0.001,0,0.002,0,0.003c0,0,0,0.001,0,0.002C76,50.563,76.515,51.077,77.15,51.077z M77.15,56.496c0.635,0,1.15-0.516,1.15-1.15   c0-0.636-0.516-1.15-1.15-1.15c-0.636,0-1.15,0.515-1.15,1.15C76,55.98,76.515,56.496,77.15,56.496z M74.45,53.787   c0.636,0,1.15-0.516,1.15-1.15c0-0.636-0.515-1.15-1.15-1.15s-1.149,0.515-1.149,1.15C73.301,53.271,73.814,53.787,74.45,53.787z    M74.45,59.205c0.636,0,1.15-0.515,1.15-1.15c0-0.635-0.515-1.149-1.15-1.149s-1.149,0.515-1.149,1.149   C73.301,58.69,73.814,59.205,74.45,59.205z M77.15,61.908c0.635,0,1.15-0.516,1.15-1.15c0-0.636-0.516-1.15-1.15-1.15   c-0.636,0-1.15,0.515-1.15,1.15C76,61.393,76.515,61.908,77.15,61.908z M74.45,64.617c0.636,0,1.15-0.516,1.15-1.15   c0-0.636-0.515-1.15-1.15-1.15s-1.149,0.515-1.149,1.15C73.301,64.102,73.814,64.617,74.45,64.617z M77.15,67.326   c0.635,0,1.15-0.514,1.15-1.149s-0.516-1.15-1.15-1.15c-0.636,0-1.15,0.515-1.15,1.15S76.515,67.326,77.15,67.326z M50.074,70.445   c-0.635,0-1.15,0.516-1.15,1.15s0.515,1.15,1.15,1.15s1.15-0.516,1.15-1.15S50.709,70.445,50.074,70.445z M60.901,70.445   c-0.636,0-1.149,0.516-1.149,1.15s0.514,1.15,1.149,1.15s1.151-0.516,1.151-1.15S61.537,70.445,60.901,70.445z M66.32,70.445   c-0.635,0-1.15,0.516-1.15,1.15s0.516,1.15,1.15,1.15s1.15-0.516,1.15-1.15S66.955,70.445,66.32,70.445z M52.783,73.154   c-0.635,0-1.15,0.516-1.15,1.15s0.516,1.15,1.15,1.15s1.15-0.516,1.15-1.15S53.418,73.154,52.783,73.154z M58.202,73.154   c-0.636,0-1.149,0.516-1.149,1.15s0.514,1.15,1.149,1.15s1.15-0.516,1.15-1.15S58.838,73.154,58.202,73.154z M63.617,73.154   c-0.636,0-1.15,0.516-1.15,1.15s0.515,1.15,1.15,1.15c0.635,0,1.15-0.516,1.15-1.15S64.252,73.154,63.617,73.154z M77.15,72.746   c0.635,0,1.15-0.516,1.15-1.15s-0.516-1.15-1.15-1.15c-0.636,0-1.15,0.516-1.15,1.15S76.515,72.746,77.15,72.746z M74.45,70.037   c0.636,0,1.15-0.516,1.15-1.15c0-0.637-0.515-1.15-1.15-1.15s-1.149,0.514-1.149,1.15C73.301,69.521,73.814,70.037,74.45,70.037z    M69.032,73.154c-0.636,0-1.151,0.516-1.151,1.15s0.516,1.15,1.151,1.15s1.149-0.516,1.149-1.15S69.668,73.154,69.032,73.154z    M74.45,75.455c0.636,0,1.15-0.516,1.15-1.15s-0.515-1.15-1.15-1.15s-1.149,0.516-1.149,1.15S73.814,75.455,74.45,75.455z    M50.074,75.857c-0.635,0-1.15,0.515-1.15,1.149c0,0.636,0.515,1.15,1.15,1.15s1.15-0.515,1.15-1.15   C51.225,76.372,50.709,75.857,50.074,75.857z M60.901,75.857c-0.636,0-1.149,0.515-1.149,1.149c0,0.636,0.514,1.15,1.149,1.15   s1.151-0.515,1.151-1.15C62.053,76.372,61.537,75.857,60.901,75.857z M55.49,70.445c-0.635,0-1.149,0.516-1.149,1.15   s0.515,1.15,1.149,1.15c0.636,0,1.15-0.516,1.15-1.15S56.126,70.445,55.49,70.445z M55.49,75.857c-0.635,0-1.149,0.515-1.149,1.149   c0,0.636,0.515,1.15,1.149,1.15c0.636,0,1.15-0.515,1.15-1.15C56.641,76.372,56.126,75.857,55.49,75.857z M66.32,75.857   c-0.635,0-1.15,0.515-1.15,1.149c0,0.636,0.516,1.15,1.15,1.15s1.15-0.515,1.15-1.15C67.471,76.372,66.955,75.857,66.32,75.857z    M77.15,78.157c0.635,0,1.15-0.515,1.15-1.15c0-0.635-0.516-1.149-1.15-1.149c-0.636,0-1.15,0.515-1.15,1.149   C76,77.643,76.515,78.157,77.15,78.157z M71.74,51.077c0.635,0,1.15-0.515,1.15-1.15c0-0.001,0-0.002,0-0.002   c0-0.001,0-0.002,0-0.003c0-0.636-0.516-1.15-1.15-1.15c-0.636,0-1.15,0.514-1.15,1.15c0,0.001,0,0.002,0,0.003   c0,0,0,0.001,0,0.002C70.59,50.563,71.104,51.077,71.74,51.077z M71.74,56.496c0.635,0,1.15-0.516,1.15-1.15   c0-0.636-0.516-1.15-1.15-1.15c-0.636,0-1.15,0.515-1.15,1.15C70.59,55.98,71.104,56.496,71.74,56.496z M71.74,61.908   c0.635,0,1.15-0.516,1.15-1.15c0-0.636-0.516-1.15-1.15-1.15c-0.636,0-1.15,0.515-1.15,1.15   C70.59,61.393,71.104,61.908,71.74,61.908z M71.74,67.326c0.635,0,1.15-0.514,1.15-1.149s-0.516-1.15-1.15-1.15   c-0.636,0-1.15,0.515-1.15,1.15S71.104,67.326,71.74,67.326z M71.74,72.746c0.635,0,1.15-0.516,1.15-1.15s-0.516-1.15-1.15-1.15   c-0.636,0-1.15,0.516-1.15,1.15S71.104,72.746,71.74,72.746z M71.74,78.157c0.635,0,1.15-0.515,1.15-1.15   c0-0.635-0.516-1.149-1.15-1.149c-0.636,0-1.15,0.515-1.15,1.149C70.59,77.643,71.104,78.157,71.74,78.157z"/></g><text x="0" y="115" fill="#000000" font-size="5px" font-weight="bold" font-family="'Helvetica Neue', Helvetica, Arial-Unicode, Arial, Sans-serif">Created by b farias</text><text x="0" y="120" fill="#000000" font-size="5px" font-weight="bold" font-family="'Helvetica Neue', Helvetica, Arial-Unicode, Arial, Sans-serif">from the Noun Project</text></svg>