<svg xmlns="http://www.w3.org/2000/svg" data-name="Layer 1" viewBox="0 0 100 125" x="0px" y="0px"><title>47 all</title><path d="M71,11H38.87a3,3,0,0,0-2.14.9L18.86,30.15a3,3,0,0,0-.86,2.1V78A11,11,0,0,0,29,89H71A11,11,0,0,0,82,78V22A11,11,0,0,0,71,11ZM27.4,30,36,21.22V29a1,1,0,0,1-1,1ZM50,66.5H36a3,3,0,1,1,0-6H50a3,3,0,0,1,0,6ZM64,52H36a3,3,0,1,1,0-6H64a3,3,0,1,1,0,6Z"/><text x="0" y="115" fill="#000000" font-size="5px" font-weight="bold" font-family="'Helvetica Neue', Helvetica, Arial-Unicode, Arial, Sans-serif">Created by Guru</text><text x="0" y="120" fill="#000000" font-size="5px" font-weight="bold" font-family="'Helvetica Neue', Helvetica, Arial-Unicode, Arial, Sans-serif">from the Noun Project</text></svg>