<svg xmlns="http://www.w3.org/2000/svg" xmlns:xlink="http://www.w3.org/1999/xlink" version="1.1" x="0px" y="0px" viewBox="0 0 100 125" style="enable-background:new 0 0 100 100;" xml:space="preserve"><path d="M95.1,14.1h-90v53.2h37.6L41,79.5H30.7v7.2h38.9v-7.2h-9.4l-2.2-12.3h37.2V14.1z M16.3,60.1V21.2h67.5v38.9H16.3z   M74.6,33.5v-8.2H59.3v3.1h-7.2v11.3H45v-5.1H24.5v12.3H45v-5.1h7.2v11.3h7.2V56h15.3v-8.2H59.3v3.1h-5.1v-9.2h5.1v3.1h15.3v-8.2  H59.3v3.1h-5.1v-9.2h5.1v3.1H74.6z M31.7,41.7h-2.1v-2.1h2.1V41.7z M35.8,41.7h-2.1v-2.1h2.1V41.7z M39.9,41.7h-2.1v-2.1h2.1V41.7z"/><text x="0" y="115" fill="#000000" font-size="5px" font-weight="bold" font-family="'Helvetica Neue', Helvetica, Arial-Unicode, Arial, Sans-serif">Created by Laymik</text><text x="0" y="120" fill="#000000" font-size="5px" font-weight="bold" font-family="'Helvetica Neue', Helvetica, Arial-Unicode, Arial, Sans-serif">from the Noun Project</text></svg>