<svg xmlns="http://www.w3.org/2000/svg" xmlns:xlink="http://www.w3.org/1999/xlink" version="1.1" x="0px" y="0px" viewBox="0 0 50 62.5" enable-background="new 0 0 50 50" xml:space="preserve"><path d="M42.492,20.017c2.205,0,3.998-1.793,3.998-3.997c0-2.169-1.793-3.935-3.998-3.935h-3.273l1.195-6.999  c0.18-1.248-0.16-2.474-0.932-3.363c-0.727-0.838-1.762-1.3-2.914-1.3c-2.025,0-3.721,1.47-4.023,3.454l-1.393,8.208h-7.835  l1.195-6.999c0.179-1.248-0.161-2.473-0.933-3.363c-0.727-0.838-1.762-1.3-2.914-1.3c-2.023,0-3.718,1.468-4.024,3.454l-1.393,8.208  h-5.248c-2.204,0-3.997,1.793-3.997,3.997c0,2.169,1.793,3.934,3.997,3.934h3.888l-1.688,9.718H7.507  c-2.204,0-3.997,1.793-3.997,3.997c0,2.169,1.793,3.934,3.997,3.934h3.33l-1.252,7.251c-0.178,1.247,0.163,2.472,0.934,3.361  c0.727,0.838,1.762,1.299,2.914,1.299c2.023,0,3.718-1.468,4.023-3.448l1.452-8.463h7.833l-1.252,7.249  c-0.179,1.247,0.161,2.473,0.932,3.362c0.727,0.838,1.762,1.3,2.914,1.3c2.023,0,3.719-1.468,4.023-3.448l1.451-8.463h5.189  c2.203,0,3.996-1.793,3.996-3.996c0-2.17-1.793-3.935-3.996-3.935h-3.826l1.689-9.718H42.492z M28.104,29.734H20.27l1.688-9.718  h7.835L28.104,29.734z"/><text x="0" y="65" fill="#000000" font-size="5px" font-weight="bold" font-family="'Helvetica Neue', Helvetica, Arial-Unicode, Arial, Sans-serif">Created by Alex Burte</text><text x="0" y="70" fill="#000000" font-size="5px" font-weight="bold" font-family="'Helvetica Neue', Helvetica, Arial-Unicode, Arial, Sans-serif">from the Noun Project</text></svg>