<svg xmlns="http://www.w3.org/2000/svg" xmlns:xlink="http://www.w3.org/1999/xlink" version="1.1" x="0px" y="0px" viewBox="0 0 100 125" enable-background="new 0 0 100 100" xml:space="preserve"><path d="M55.139,73.791c0,1.216-0.456,2.245-1.368,3.088c-0.912,0.843-2.169,1.264-3.772,1.264s-2.86-0.421-3.772-1.264  c-0.912-0.843-1.368-1.872-1.368-3.088c0-1.188,0.449-2.204,1.347-3.046C47.106,69.901,48.37,69.48,50,69.48  s2.894,0.414,3.792,1.243C54.69,71.552,55.139,72.575,55.139,73.791z M60.935,26.402C50.891,16.358,35.494,24.28,34.527,37.343  c-0.448,6.06,8.983,6.013,9.431,0c0.377-5.211,6.366-8.135,10.28-4.221c3.891,3.89,0.967,9.879-4.221,10.28  c-2.547,0.165-4.716,2.004-4.716,4.716v8.111c0,6.06,9.431,6.083,9.431,0v-4.433C64.802,48.024,69.707,35.174,60.935,26.402z"/><text x="0" y="115" fill="#000000" font-size="5px" font-weight="bold" font-family="'Helvetica Neue', Helvetica, Arial-Unicode, Arial, Sans-serif">Created by Abby Milberg</text><text x="0" y="120" fill="#000000" font-size="5px" font-weight="bold" font-family="'Helvetica Neue', Helvetica, Arial-Unicode, Arial, Sans-serif">from the Noun Project</text></svg>