<svg xmlns="http://www.w3.org/2000/svg" xmlns:xlink="http://www.w3.org/1999/xlink" version="1.2" baseProfile="tiny" x="0px" y="0px" viewBox="0 0 100 125" xml:space="preserve"><path d="M87.5,7.5h-75C8.358,7.5,5,10.858,5,15v70c0,4.142,3.358,7.5,7.5,7.5h75c4.142,0,7.5-3.358,7.5-7.5V15   C95,10.858,91.642,7.5,87.5,7.5z M77.5,75h-55V40h15v-5h5V25h15v10h5v5h15V75z"/><rect x="47.5" y="65" width="5" height="7.5"/><rect x="40" y="65" width="5" height="7.5"/><rect x="32.5" y="65" width="5" height="7.5"/><rect x="25" y="65" width="5" height="7.5"/><rect x="55" y="65" width="5" height="7.5"/><rect x="62.5" y="65" width="5" height="7.5"/><rect x="70" y="65" width="5" height="7.5"/><text x="0" y="115" fill="#000000" font-size="5px" font-weight="bold" font-family="'Helvetica Neue', Helvetica, Arial-Unicode, Arial, Sans-serif">Created by Arthur Shlain</text><text x="0" y="120" fill="#000000" font-size="5px" font-weight="bold" font-family="'Helvetica Neue', Helvetica, Arial-Unicode, Arial, Sans-serif">from the Noun Project</text></svg>