<svg xmlns="http://www.w3.org/2000/svg" xmlns:xlink="http://www.w3.org/1999/xlink" xml:space="preserve" version="1.1" style="shape-rendering:geometricPrecision;text-rendering:geometricPrecision;image-rendering:optimizeQuality;" viewBox="0 0 333 416.25" x="0px" y="0px" fill-rule="evenodd" clip-rule="evenodd"><defs><style type="text/css">
   
    .fil0 {fill:black}
   
  </style></defs><g><path class="fil0" d="M320 325l-58 0c25,-146 -105,-279 -251,-257l0 -58c177,-19 332,138 309,315zm-240 -74c16,16 17,42 1,57 -15,16 -41,15 -57,-1 -17,-16 -17,-42 -2,-58 16,-15 42,-15 58,2zm122 74l-62 0c40,-81 -46,-171 -129,-137l0 -61c115,-26 221,84 191,198z"/></g><text x="0" y="348" fill="#000000" font-size="5px" font-weight="bold" font-family="'Helvetica Neue', Helvetica, Arial-Unicode, Arial, Sans-serif">Created by ishanda</text><text x="0" y="353" fill="#000000" font-size="5px" font-weight="bold" font-family="'Helvetica Neue', Helvetica, Arial-Unicode, Arial, Sans-serif">from the Noun Project</text></svg>